 <svg  version="1.0" xmlns="http://www.w3.org/2000/svg"  width="300.000000pt" height="147.000000pt" viewBox="0 0 300.000000 147.000000"  preserveAspectRatio="xMidYMid meet">  <g transform="translate(0.000000,147.000000) scale(0.100000,-0.100000)" fill="#000000" stroke="none"> <path d="M1353 1360 c-88 -23 -115 -37 -184 -93 -62 -50 -109 -129 -129 -216 -12 -52 -12 -55 10 -73 21 -17 48 -18 384 -17 198 1 352 3 341 6 -110 24 -444 108 -457 115 -43 22 7 98 89 135 50 23 64 25 156 21 82 -3 115 -10 170 -32 68 -28 100 -28 63 0 -49 35 -132 57 -232 62 -95 4 -106 2 -163 -23 -34 -16 -75 -43 -91 -62 -71 -80 -46 -122 100 -164 l45 -13 -45 -7 c-56 -9 -287 -11 -319 -2 -21 5 -23 10 -17 51 3 24 18 67 33 94 139 256 580 276 754 34 36 -49 36 -68 2 -101 -36 -33 -70 -33 -85 0 -10 22 -8 30 11 55 20 27 20 30 4 30 -66 -1 -76 -103 -12 -135 15 -8 34 -15 42 -15 23 0 67 40 67 61 0 10 4 19 8 19 10 0 32 -68 32 -99 0 -29 18 -27 26 3 15 61 -65 219 -140 279 -124 97 -300 130 -463 87z"/> <path d="M204 691 c-95 -58 -112 -327 -26 -422 54 -59 141 -42 157 32 8 38 22 27 27 -21 2 -24 9 -36 21 -38 15 -3 17 8 17 115 l0 118 -57 -4 c-61 -3 -73 -11 -73 -49 0 -18 5 -23 23 -20 20 3 22 -1 19 -32 -4 -45 -35 -79 -60 -64 -35 22 -43 55 -40 174 2 91 7 122 21 143 9 15 24 27 32 27 24 0 45 -30 45 -66 0 -34 0 -34 46 -34 l46 0 -7 38 c-19 106 -107 154 -191 103z"/> <path d="M474 701 c-2 -2 -4 -108 -4 -234 0 -205 2 -228 16 -223 9 3 29 6 45 6 l29 0 0 105 c0 86 3 105 15 105 18 0 33 -30 70 -135 16 -44 29 -81 30 -82 2 -5 85 20 85 26 0 3 -18 48 -40 99 l-41 94 31 28 c26 24 30 35 30 82 0 57 -16 89 -53 110 -21 11 -204 28 -213 19z m164 -77 c15 -10 22 -25 22 -49 0 -39 -29 -65 -72 -65 -28 0 -28 1 -28 65 0 64 0 65 28 65 15 0 38 -7 50 -16z m-92 -129 c6 -16 -12 -45 -27 -45 -5 0 -9 14 -9 30 0 32 26 43 36 15z"/> <path d="M861 684 c-46 -38 -65 -113 -59 -234 6 -120 30 -179 84 -205 72 -34 141 2 170 88 27 77 25 236 -3 299 -36 79 -130 105 -192 52z m97 -42 c7 -5 17 -24 22 -43 14 -47 12 -216 -3 -259 -15 -44 -49 -52 -70 -18 -21 32 -30 150 -18 231 12 87 32 112 69 89z"/> <path d="M1143 694 c-2 -7 -3 -90 -1 -185 2 -130 7 -181 18 -203 33 -64 110 -91 173 -61 56 26 65 62 68 276 l2 184 -34 -3 c-19 -2 -36 -6 -38 -8 -2 -2 -3 -79 -2 -171 1 -178 -6 -216 -44 -221 -47 -6 -50 6 -55 209 l-5 192 -39 1 c-21 1 -41 -4 -43 -10z"/> <path d="M2173 703 l-43 -4 0 -230 0 -229 45 0 45 0 0 235 c0 129 -1 234 -2 233 -2 -1 -22 -3 -45 -5z"/> <path d="M2375 698 c-62 -36 -89 -117 -82 -247 7 -133 40 -199 109 -216 64 -16 125 29 147 110 12 45 8 52 -33 57 -27 3 -31 0 -40 -37 -14 -52 -23 -65 -46 -65 -37 0 -54 54 -54 175 0 61 6 122 12 138 25 59 69 41 79 -32 5 -40 7 -41 44 -41 21 0 40 4 43 9 12 19 -25 110 -55 135 -33 28 -88 34 -124 14z"/> <path d="M2671 693 c-34 -17 -70 -77 -71 -116 0 -42 34 -90 89 -125 104 -65 124 -98 81 -137 -26 -24 -62 -9 -85 35 -8 16 -17 30 -20 30 -12 0 -75 -35 -75 -42 0 -19 74 -88 106 -98 92 -31 184 39 184 138 0 54 -33 99 -103 141 -32 19 -66 45 -74 58 -14 21 -14 25 1 48 9 14 23 25 31 25 17 0 50 -30 57 -51 4 -11 10 -11 36 0 43 18 46 25 26 56 -35 54 -116 71 -183 38z m41 -171 c91 -67 128 -107 128 -138 -1 -27 -1 -27 -12 -9 -19 35 -51 66 -106 102 -60 41 -73 59 -71 105 2 31 2 31 6 5 3 -19 20 -39 55 -65z"/> <path d="M1490 470 l0 -230 46 0 46 0 -3 93 -3 92 49 5 c94 11 125 44 125 135 0 103 -42 135 -180 135 l-80 0 0 -230z m143 159 c30 -16 37 -28 37 -66 0 -41 -30 -73 -68 -73 l-27 0 1 73 c1 39 3 73 3 75 3 6 35 1 54 -9z m-72 -188 c-18 -33 -31 -25 -31 21 l0 42 21 -21 c17 -17 19 -24 10 -42z"/> <path d="M1810 471 l0 -231 46 0 45 0 -2 93 -2 92 58 5 c48 5 61 10 85 37 53 59 46 163 -13 207 -23 17 -46 22 -123 24 l-94 4 0 -231z m168 142 c33 -45 0 -123 -52 -123 -23 0 -25 3 -28 71 -2 39 -1 73 2 76 10 9 65 -8 78 -24z m-98 -128 c10 -12 10 -21 2 -40 -17 -37 -32 -30 -32 15 0 42 9 50 30 25z"/> </g> </svg> 